<svg xmlns="http://www.w3.org/2000/svg" xmlns:xlink="http://www.w3.org/1999/xlink" id="Capa_1" x="0px" y="0px" viewBox="0 0 1023.3 159" style="enable-background:new 0 0 1023.3 159;" xml:space="preserve">
<style type="text/css">
	.st0{fill:#FFFFFF;}
</style>
<title>Artboard 35</title>
<g>
	<g>
		<polygon class="st0" points="381.2,32.3 416.3,32.3 416.3,125.5 439.5,125.5 439.5,32.3 474.5,32.3 474.5,8.9 392.6,8.9   "></polygon>
		<path class="st0" d="M551,48.2c-3.5-3.6-7.6-6.3-12.3-8.4c-4.7-2-9.8-3.1-15.1-3.1c-2.9,0-5.8,0.4-8.6,1.3s-5.6,2.3-8.2,4.3V3.8    h-22.2v121.8h22.2V75.8c0-2.3,0.4-4.4,1.3-6.5c0.9-2,2.1-3.8,3.6-5.3c1.5-1.5,3.3-2.7,5.4-3.6s4.3-1.3,6.6-1.3    c2.3,0,4.4,0.4,6.4,1.3c2,0.9,3.8,2.1,5.3,3.6c1.5,1.5,2.7,3.3,3.6,5.3c0.9,2,1.3,4.2,1.3,6.5H540v49.8h22.4V75.8    c0-5.4-1-10.4-3.1-15.2C557.3,55.9,554.5,51.8,551,48.2z"></path>
		<path class="st0" d="M649.4,47.8c-4-4-8.7-7.2-14.1-9.4c-5.4-2.2-11.2-3.3-17.4-3.3c-6.1,0-11.9,1.2-17.3,3.5    c-5.4,2.3-10.1,5.5-14.2,9.6c-4,4.1-7.2,9-9.6,14.6s-3.5,11.8-3.5,18.4c0,6.5,1.2,12.6,3.5,18.2s5.5,10.5,9.6,14.6    s8.8,7.3,14.2,9.7c5.4,2.4,11.2,3.5,17.3,3.5c6.2,0,12-1.2,17.4-3.5c5.4-2.4,10.1-5.6,14.1-9.7s7.2-9,9.5-14.6    c2.3-5.6,3.5-11.7,3.5-18.2c0-6.9-1.2-13.2-3.5-18.9C656.5,56.7,653.4,51.8,649.4,47.8z M638.2,91c-1.2,2.9-2.8,5.4-4.8,7.5    c-2,2.1-4.4,3.7-7,4.8c-2.7,1.1-5.5,1.7-8.6,1.7s-5.9-0.6-8.6-1.8s-5-2.9-7-5c-2-2.1-3.5-4.6-4.7-7.5c-1.1-2.9-1.7-6-1.7-9.4    c0-3.6,0.6-6.8,1.7-9.7c1.1-2.9,2.7-5.4,4.7-7.5c2-2.1,4.3-3.7,7-4.8s5.5-1.7,8.6-1.7s5.9,0.6,8.6,1.7c2.7,1.1,5,2.7,7,4.8    c2,2.1,3.6,4.6,4.8,7.5s1.7,6.1,1.7,9.7C640,84.8,639.4,88,638.2,91z"></path>
		<path class="st0" d="M729.2,86.7c0,2.3-0.4,4.6-1.3,6.8s-2.1,4.2-3.6,5.9c-1.5,1.7-3.3,3.1-5.3,4.2c-2,1.1-4.2,1.6-6.5,1.6    c-2.3,0-4.5-0.4-6.6-1.2c-2-0.8-3.8-2-5.3-3.6c-1.5-1.6-2.7-3.5-3.6-5.8c-0.9-2.3-1.3-4.9-1.3-7.9V38.5h-22.1v48.2    c0,6.2,1,11.9,3.1,16.9c2,5,4.8,9.3,8.4,12.8s7.7,6.2,12.4,8.1s9.8,2.8,15.1,2.8c2.4,0,4.8-0.3,7.2-0.9c2.4-0.6,4.7-1.5,6.9-2.5    c2.2-1.1,4.4-2.3,6.4-3.7s3.9-3,5.7-4.6l7.3,10.2h5.4V38.5h-22.2V86.7z"></path>
		<path class="st0" d="M838.7,49c-2.1-2-4.3-3.8-6.6-5.5c-2.4-1.7-4.8-3.1-7.4-4.4c-2.6-1.2-5.3-2.2-8.1-2.9    c-2.8-0.7-5.6-1.1-8.4-1.1c-6.1,0-11.9,1.2-17.3,3.5c-5.4,2.3-10.1,5.6-14.2,9.7c-4,4.1-7.2,9-9.6,14.6    c-2.3,5.6-3.5,11.7-3.5,18.3c0,7.2,1.2,13.6,3.5,19.3c2.3,5.7,5.5,10.5,9.6,14.4c4,3.9,8.8,7,14.2,9.1c5.4,2.1,11.2,3.2,17.3,3.2    c1.8,0,3.8-0.1,6-0.3c2.1-0.2,4.2-0.6,6.2-1.2c2-0.6,3.8-1.3,5.4-2.2c1.6-0.9,2.9-2,3.7-3.5c-0.6,2.2-1.4,4.3-2.4,6.3    c-1,2-2.3,3.8-4,5.3c-1.7,1.5-3.7,2.8-6.2,3.7s-5.4,1.3-8.9,1.3l-11-0.2v22.2l11.1,0.2c6.1,0,11.9-1.2,17.3-3.5    c5.4-2.3,10.1-5.5,14.2-9.5c4-4,7.2-8.7,9.6-14.1c2.3-5.4,3.5-11.1,3.5-17.3v-76h-5.4L838.7,49z M828.6,90.1    c-1.2,2.8-2.8,5.4-4.8,7.6c-2,2.2-4.4,4-7,5.3s-5.5,2-8.6,2s-5.9-0.6-8.6-1.7c-2.7-1.1-5-2.7-7-4.8c-2-2.1-3.5-4.5-4.7-7.4    c-1.1-2.9-1.7-6.2-1.7-9.8c0-3.8,0.6-7.2,1.7-10.1c1.1-3,2.7-5.4,4.7-7.4c2-2,4.3-3.5,7-4.6c2.7-1,5.5-1.5,8.6-1.5s5.9,0.7,8.6,2    s5,3.1,7,5.3c2,2.2,3.6,4.7,4.8,7.6c1.2,2.8,1.7,5.8,1.7,8.8S829.7,87.3,828.6,90.1z"></path>
		<path class="st0" d="M936.1,48.2c-3.5-3.6-7.6-6.3-12.3-8.4c-4.7-2-9.8-3.1-15.1-3.1c-2.9,0-5.8,0.4-8.6,1.3s-5.6,2.3-8.2,4.3V3.8    h-22.2v121.8h22.2V75.8c0-2.3,0.4-4.4,1.3-6.5c0.9-2,2.1-3.8,3.6-5.3c1.5-1.5,3.3-2.7,5.4-3.6s4.3-1.3,6.6-1.3    c2.3,0,4.4,0.4,6.4,1.3c2,0.9,3.8,2.1,5.3,3.6c1.5,1.5,2.7,3.3,3.6,5.3c0.9,2,1.3,4.2,1.3,6.5h-0.2v49.8h22.4V75.8    c0-5.4-1-10.4-3.1-15.2C942.4,55.9,939.6,51.8,936.1,48.2z"></path>
		<path class="st0" d="M1023.3,60.8V38.7h-33.7V3.8h-22.1v34.8h-10.8v22.1h10.8v25.9c0,5.4,1,10.4,3.1,15.1s4.8,8.9,8.4,12.4    c3.6,3.6,7.7,6.3,12.4,8.4s9.8,3.1,15.1,3.1h16.8v-22.1h-16.8c-2.3,0-4.5-0.4-6.6-1.3c-2.1-0.9-3.9-2.1-5.4-3.6    c-1.5-1.5-2.7-3.3-3.6-5.3c-0.9-2-1.3-4.2-1.3-6.6V60.8H1023.3z"></path>
	</g>
	<g>
		<path class="st0" d="M196.4,49c-2.1-2-4.3-3.8-6.6-5.5c-2.4-1.7-4.8-3.1-7.4-4.4c-2.6-1.2-5.3-2.2-8.1-2.9    c-2.8-0.7-5.6-1.1-8.4-1.1c-6.1,0-11.9,1.2-17.3,3.5c-5.4,2.3-10.1,5.6-14.2,9.7c-4,4.1-7.2,9-9.6,14.6    c-2.3,5.6-3.5,11.7-3.5,18.3c0,7.2,1.2,13.6,3.5,19.3c2.3,5.7,5.5,10.5,9.6,14.4c4,3.9,8.8,7,14.2,9.1c5.4,2.1,11.2,3.2,17.3,3.2    c1.8,0,3.8-0.1,6-0.3c2.1-0.2,4.2-0.6,6.2-1.2c2-0.6,3.8-1.3,5.4-2.2c1.6-0.9,2.9-2,3.7-3.5c-0.6,2.2-1.4,4.3-2.4,6.3    c-1,2-2.3,3.8-4,5.3c-1.7,1.5-3.7,2.8-6.2,3.7s-5.4,1.3-8.9,1.3l-11-0.2v22.2l11.1,0.2c6.1,0,11.9-1.2,17.3-3.5    c5.4-2.3,10.1-5.5,14.2-9.5c4-4,7.2-8.7,9.6-14.1c2.3-5.4,3.5-11.1,3.5-17.3v-76h-5.4L196.4,49z M186.3,90.1    c-1.2,2.8-2.8,5.4-4.8,7.6c-2,2.2-4.4,4-7,5.3s-5.5,2-8.6,2s-5.9-0.6-8.6-1.7c-2.7-1.1-5-2.7-7-4.8c-2-2.1-3.5-4.5-4.7-7.4    c-1.1-2.9-1.7-6.2-1.7-9.8c0-3.8,0.6-7.2,1.7-10.1c1.1-3,2.7-5.4,4.7-7.4c2-2,4.3-3.5,7-4.6c2.7-1,5.5-1.5,8.6-1.5s5.9,0.7,8.6,2    s5,3.1,7,5.3c2,2.2,3.6,4.7,4.8,7.6c1.2,2.8,1.7,5.8,1.7,8.8S187.5,87.3,186.3,90.1z"></path>
		<rect x="227.4" y="38.5" class="st0" width="22.4" height="87.2"></rect>
		<path class="st0" d="M249.2,4.4c-1.4-1.3-2.9-2.4-4.8-3.2c-1.8-0.8-3.8-1.2-5.8-1.2s-4,0.4-5.8,1.2C231,2,229.4,3,228.1,4.4    s-2.4,2.9-3.2,4.7c-0.8,1.8-1.2,3.7-1.2,5.7c0,2.1,0.4,4,1.2,5.8c0.8,1.8,1.8,3.4,3.2,4.7s2.9,2.4,4.7,3.2    c1.8,0.8,3.8,1.2,5.8,1.2s4-0.4,5.8-1.2c1.8-0.8,3.4-1.8,4.8-3.2s2.4-2.9,3.2-4.7c0.8-1.8,1.2-3.7,1.2-5.8c0-2-0.4-3.9-1.2-5.7    C251.6,7.3,250.5,5.7,249.2,4.4z"></path>
		<rect x="266.7" y="3.8" class="st0" width="22.4" height="121.8"></rect>
		<path class="st0" d="M386.9,62.4c-2.3-5.7-5.5-10.5-9.5-14.6c-4-4-8.7-7.2-14.1-9.4c-5.4-2.2-11.2-3.3-17.4-3.3    c-6.1,0-11.9,1.2-17.3,3.5c-5.4,2.3-10.1,5.5-14.2,9.6c-4,4.1-7.2,9-9.6,14.6s-3.5,11.8-3.5,18.4c0,6.5,1.2,12.6,3.5,18.2    s5.5,10.5,9.6,14.6s8.8,7.3,14.2,9.7c2.3,1,4.6,1.8,7,2.3l10.3-21.1c-3,0-5.9-0.6-8.6-1.8s-5-2.9-7-5c-2-2.1-3.5-4.6-4.7-7.5    c-0.3-0.6-0.5-1.3-0.7-2H375h14.8c0.4-2.4,0.5-4.9,0.5-7.4C390.4,74.4,389.2,68,386.9,62.4z M324.8,73.9c0.2-0.8,0.5-1.6,0.8-2.3    c1.1-2.9,2.7-5.4,4.7-7.5c2-2.1,4.3-3.7,7-4.8s5.5-1.7,8.6-1.7s5.9,0.6,8.6,1.7c2.7,1.1,5,2.7,7,4.8c2,2.1,3.6,4.6,4.8,7.5    c0.3,0.8,0.6,1.5,0.8,2.3H324.8z"></path>
		<polygon class="st0" points="0,125.6 50.4,125.6 61.1,103.5 35.9,103.5 61.1,51.6 97.2,125.6 122.3,125.6 61.1,0   "></polygon>
	</g>
</g>
</svg>